<svg width="42" height="38" viewBox="0 0 42 38" fill="none" xmlns="http://www.w3.org/2000/svg">
<g filter="url(#filter0_d)">
<path d="M26.4261 9.43274L21.5806 7.97899C21.2169 7.87047 20.843 7.83226 20.4726 7.84579V7.83332H14.5833L4.13965 4.36279L4.17122 19.0377L7.1692 20.5363L8.94426 16.1968L11.5373 17.2343L12.2097 15.5539L13.1835 16.5277L12.275 17.4364C11.9592 17.7522 11.7783 18.1889 11.7783 18.6357C11.7783 19.5501 12.5074 20.2935 13.4143 20.3256C13.4459 21.2118 14.1583 21.9243 15.0445 21.9558C15.0761 22.842 15.7885 23.5544 16.6747 23.586C16.7073 24.4929 17.4502 25.222 18.3648 25.222C18.8114 25.222 19.2484 25.0411 19.5639 24.7253L20.4726 23.8169L20.8377 24.182C21.1535 24.4977 21.5902 24.6787 22.037 24.6787C22.9516 24.6787 23.6948 23.9495 23.7269 23.0426C24.6131 23.011 25.3255 22.2986 25.3571 21.4124C26.2433 21.3809 26.9557 20.6684 26.9873 19.7822C27.8942 19.7496 28.6236 19.0067 28.6236 18.0923C28.6236 18.0151 28.6111 17.939 28.6008 17.8623L29.3806 17.0825L30.0107 18.3433L33.424 16.6365L35.4866 20.5745L37.8613 18.9921V4.94732L26.4261 9.43274ZM6.60616 19.0398L5.25696 18.3651L5.22963 5.87014L11.1842 7.84924L6.60616 19.0398ZM10.9321 15.8214L9.35526 15.1909L12.2179 8.19258L13.7757 8.71051L10.9321 15.8214ZM12.8651 18.6357C12.8651 18.4752 12.9295 18.3184 13.0431 18.2046L13.9985 17.2494C14.1121 17.1358 14.2692 17.0711 14.4294 17.0711C14.7654 17.0711 15.0386 17.3446 15.0386 17.6803C15.0386 17.8405 14.9739 17.9976 14.8603 18.1112L13.9052 19.0666C13.7916 19.1802 13.6345 19.2447 13.4743 19.2447C13.1383 19.2447 12.8651 18.9714 12.8651 18.6357ZM14.4952 20.2659C14.4952 20.1054 14.5597 19.9486 14.6733 19.8348L15.6287 18.8796C15.7423 18.766 15.8994 18.7013 16.0596 18.7013C16.3955 18.7013 16.6688 18.9748 16.6688 19.3105C16.6688 19.4707 16.6041 19.6278 16.4905 19.7414L15.5353 20.6968C15.4218 20.8104 15.2647 20.8749 15.1044 20.8749C14.7685 20.8749 14.4952 20.6016 14.4952 20.2659ZM16.1254 21.8961C16.1254 21.7356 16.1899 21.5788 16.3035 21.465L17.2589 20.5098C17.3725 20.3962 17.5296 20.3315 17.6898 20.3315C18.0257 20.3315 18.299 20.605 18.299 20.9407C18.299 21.1009 18.2343 21.258 18.1207 21.3716L17.1655 22.327C17.052 22.4406 16.8949 22.5051 16.7346 22.5051C16.3987 22.5051 16.1254 22.2318 16.1254 21.8961ZM19.7509 23.0018L18.7957 23.9572C18.6822 24.0708 18.5251 24.1353 18.3648 24.1353C18.0289 24.1353 17.7556 23.862 17.7556 23.5263C17.7556 23.3658 17.8201 23.209 17.9337 23.0952L18.8891 22.14C19.0027 22.0264 19.1598 21.9617 19.32 21.9617C19.6559 21.9617 19.9292 22.2352 19.9292 22.5709C19.9292 22.7311 19.8645 22.8882 19.7509 23.0018ZM26.9276 18.7013C26.7673 18.7013 26.6103 18.6368 26.4967 18.5232L21.9436 13.9699L21.1752 14.7383L25.7283 19.2914C25.8419 19.4052 25.9066 19.562 25.9066 19.7225C25.9066 20.0582 25.6333 20.3315 25.2974 20.3315C25.1371 20.3315 24.9801 20.267 24.8665 20.1534L20.3134 15.6001L19.545 16.3685L24.0981 20.9216C24.2117 21.0354 24.2764 21.1922 24.2764 21.3527C24.2764 21.6884 24.0031 21.9617 23.6672 21.9617C23.5069 21.9617 23.3499 21.8972 23.2363 21.7836L18.6832 17.2303L17.9148 17.9987L22.4679 22.5518C22.5815 22.6656 22.6462 22.8224 22.6462 22.9829C22.6462 23.3186 22.3729 23.5919 22.037 23.5919C21.8768 23.5919 21.7197 23.5274 21.6061 23.4138L20.9932 22.8006C21.0041 22.7248 21.016 22.6486 21.016 22.5709C21.016 21.6563 20.2866 20.9131 19.3797 20.881C19.3482 19.9948 18.6357 19.2824 17.7495 19.2508C17.718 18.3646 17.0055 17.6522 16.1193 17.6206C16.0867 16.7137 15.344 15.9843 14.4294 15.9843C14.3522 15.9843 14.2761 15.9968 14.1997 16.0071L12.6483 14.4557L14.863 8.92012H18.074L16.0787 10.9157C15.758 11.2357 15.582 11.6618 15.582 12.115C15.582 13.05 16.3427 13.8107 17.278 13.8107C17.7246 13.8107 18.1616 13.6297 18.4771 13.314L19.9168 11.874C20.2113 11.5806 20.73 11.5692 21.0367 11.8502L22.3071 13.0147C22.7293 13.4016 23.1984 13.7234 23.7004 13.9755L27.3585 17.6612C27.4721 17.775 27.5368 17.9318 27.5368 18.0923C27.5368 18.428 27.2635 18.7013 26.9276 18.7013ZM28.0802 16.8461L25.8466 14.5955C26.0462 14.6144 26.2473 14.6258 26.45 14.6258V13.539C25.1849 13.539 23.9742 13.068 23.0418 12.2131L21.7712 11.0491C21.054 10.3906 19.8374 10.4168 19.1489 11.1062L17.7095 12.5459C17.5954 12.6589 17.4383 12.7239 17.278 12.7239C16.9421 12.7239 16.6688 12.4506 16.6688 12.115C16.6688 11.9518 16.7317 11.7992 16.8469 11.6838L18.9183 9.61263C19.527 9.00396 20.441 8.77233 21.2681 9.02015L26.0685 10.4601L28.8674 16.0588L28.0802 16.8461ZM30.4966 16.8854L27.2019 10.2956L29.6082 9.35154L32.9196 15.6736L30.4966 16.8854ZM36.7746 18.4107L35.8886 19.0014L30.626 8.95275L36.7746 6.54116V18.4107Z" fill="#E3B873"/>
<circle cx="23.6667" cy="1.57397" r="0.485591" fill="#E3B873"/>
<circle cx="11.4099" cy="24.5032" r="0.485591" fill="#E3B873"/>
<circle cx="13.468" cy="26.1916" r="0.485591" fill="#E3B873"/>
<circle cx="15.8166" cy="27.4304" r="0.485591" fill="#E3B873"/>
<circle cx="18.3655" cy="28.2229" r="0.485591" fill="#E3B873"/>
<circle cx="26.2141" cy="2.34692" r="0.485591" fill="#E3B873"/>
<circle cx="28.5632" cy="3.60131" r="0.485591" fill="#E3B873"/>
<path d="M30.8305 2.89941V5.70111H27.9971" stroke="#E3B873" stroke-linecap="round" stroke-linejoin="round"/>
<path d="M9.01039 24.1865L9.01039 21.9197L11.2744 21.9197" stroke="#E3B873" stroke-linecap="round" stroke-linejoin="round"/>
<path d="M11.8008 4.88243C13.3359 3.54661 14.3124 2.93205 16.1519 2.2138C18.1033 1.45186 19.4237 1.27294 21.5441 1.27295" stroke="#E3B873" stroke-linecap="round"/>
<path d="M32.4046 22.3709C31.2633 24.1511 29.1376 25.8893 27.4089 26.8437C25.575 27.8563 23.6102 28.4268 20.9931 28.5632" stroke="#E3B873" stroke-linecap="round"/>
</g>
<defs>
<filter id="filter0_d" x="0.139648" y="0.772949" width="41.7217" height="36.4156" filterUnits="userSpaceOnUse" color-interpolation-filters="sRGB">
<feFlood flood-opacity="0" result="BackgroundImageFix"/>
<feColorMatrix in="SourceAlpha" type="matrix" values="0 0 0 0 0 0 0 0 0 0 0 0 0 0 0 0 0 0 127 0"/>
<feOffset dy="4"/>
<feGaussianBlur stdDeviation="2"/>
<feColorMatrix type="matrix" values="0 0 0 0 0 0 0 0 0 0 0 0 0 0 0 0 0 0 0.25 0"/>
<feBlend mode="normal" in2="BackgroundImageFix" result="effect1_dropShadow"/>
<feBlend mode="normal" in="SourceGraphic" in2="effect1_dropShadow" result="shape"/>
</filter>
</defs>
</svg>
